<svg width="139" height="136" viewBox="0 0 139 136" fill="none" xmlns="http://www.w3.org/2000/svg">
<g filter="url(#filter0_d)">
<rect width="4.02633" height="14.9534" rx="2.01316" transform="matrix(-0.355808 0.934559 -0.908733 -0.417379 132.666 100.148)" fill="#C4C4C4"/>
</g>
<g filter="url(#filter1_d)">
<rect width="4.02633" height="14.9534" rx="2.01316" transform="matrix(0.171977 0.985101 -0.994381 0.105857 133.693 81.1714)" fill="#C4C4C4"/>
</g>
<g filter="url(#filter2_d)">
<rect width="4.02633" height="14.9534" rx="2.01316" transform="matrix(0.497104 0.867691 -0.898929 0.438095 129.442 66)" fill="#C4C4C4"/>
</g>
<path d="M54.126 9.68033C45.2916 9.87521 38.2977 17.6425 38.5048 27.0291L70.497 26.3233C70.29 16.9368 62.9604 9.48544 54.126 9.68033Z" fill="#F2F55B"/>
<path d="M51.9466 24.2321L51.6488 10.7354C43.6508 10.9118 38.8505 20.0199 37.4501 24.5519L51.9466 24.2321Z" fill="#E9E58A"/>
<rect x="34.4395" y="24.1177" width="39" height="5" rx="2.5" transform="rotate(-1.26375 34.4395 24.1177)" fill="#F2F55B"/>
<path d="M56.3462 19.6333L56.4454 24.1322L61.9441 24.0109L56.3462 19.6333Z" fill="#E9E58A"/>
<g filter="url(#filter3_d)">
<rect x="4" y="28" width="100.615" height="84" rx="5" fill="#232222"/>
</g>
<g filter="url(#filter4_d)">
<rect x="4" y="28" width="100.615" height="12.9231" fill="#C4C4C4"/>
<rect x="4" y="28" width="100.615" height="12.9231" fill="url(#paint0_linear)"/>
</g>
<circle cx="10.0002" cy="34.4616" r="2.76923" fill="#EB5A5A"/>
<circle cx="20.154" cy="34.4616" r="2.76923" fill="#F3DB87"/>
<circle cx="29.3845" cy="34.4616" r="2.76923" fill="#75C661"/>
<path fill-rule="evenodd" clip-rule="evenodd" d="M27.6513 62.0002L11.1091 54.7695L10 57.3069L22.4903 62.7665L10.024 67.4078L10.9902 70.003L26.141 64.3623L26.5422 64.5376L27.6513 62.0002Z" fill="#C4C4C4"/>
<rect x="29.3848" y="75.5386" width="22.1538" height="2.76923" fill="#C4C4C4"/>
<path d="M86.6562 84L101.081 123H72.2315L86.6562 84Z" fill="#E78C23"/>
<path d="M92.3438 99.0312H80.9688L79.3438 103.5H93.9688L92.3438 99.0312Z" fill="white"/>
<path d="M94.7812 105.938H78.5312L76.9062 110.406H96.4062L94.7812 105.938Z" fill="white"/>
<defs>
<filter id="filter0_d" x="114.226" y="94.5679" width="21.8601" height="16.6828" filterUnits="userSpaceOnUse" color-interpolation-filters="sRGB">
<feFlood flood-opacity="0" result="BackgroundImageFix"/>
<feColorMatrix in="SourceAlpha" type="matrix" values="0 0 0 0 0 0 0 0 0 0 0 0 0 0 0 0 0 0 127 0"/>
<feOffset dy="4"/>
<feGaussianBlur stdDeviation="2"/>
<feColorMatrix type="matrix" values="0 0 0 0 0 0 0 0 0 0 0 0 0 0 0 0 0 0 0.1 0"/>
<feBlend mode="normal" in2="BackgroundImageFix" result="effect1_dropShadow"/>
<feBlend mode="normal" in="SourceGraphic" in2="effect1_dropShadow" result="shape"/>
</filter>
<filter id="filter1_d" x="115.14" y="81.373" width="22.9294" height="13.1462" filterUnits="userSpaceOnUse" color-interpolation-filters="sRGB">
<feFlood flood-opacity="0" result="BackgroundImageFix"/>
<feColorMatrix in="SourceAlpha" type="matrix" values="0 0 0 0 0 0 0 0 0 0 0 0 0 0 0 0 0 0 127 0"/>
<feOffset dy="4"/>
<feGaussianBlur stdDeviation="2"/>
<feColorMatrix type="matrix" values="0 0 0 0 0 0 0 0 0 0 0 0 0 0 0 0 0 0 0.1 0"/>
<feBlend mode="normal" in2="BackgroundImageFix" result="effect1_dropShadow"/>
<feBlend mode="normal" in="SourceGraphic" in2="effect1_dropShadow" result="shape"/>
</filter>
<filter id="filter2_d" x="112.742" y="66.6714" width="21.9593" height="16.7016" filterUnits="userSpaceOnUse" color-interpolation-filters="sRGB">
<feFlood flood-opacity="0" result="BackgroundImageFix"/>
<feColorMatrix in="SourceAlpha" type="matrix" values="0 0 0 0 0 0 0 0 0 0 0 0 0 0 0 0 0 0 127 0"/>
<feOffset dy="4"/>
<feGaussianBlur stdDeviation="2"/>
<feColorMatrix type="matrix" values="0 0 0 0 0 0 0 0 0 0 0 0 0 0 0 0 0 0 0.1 0"/>
<feBlend mode="normal" in2="BackgroundImageFix" result="effect1_dropShadow"/>
<feBlend mode="normal" in="SourceGraphic" in2="effect1_dropShadow" result="shape"/>
</filter>
<filter id="filter3_d" x="0" y="28" width="108.615" height="92" filterUnits="userSpaceOnUse" color-interpolation-filters="sRGB">
<feFlood flood-opacity="0" result="BackgroundImageFix"/>
<feColorMatrix in="SourceAlpha" type="matrix" values="0 0 0 0 0 0 0 0 0 0 0 0 0 0 0 0 0 0 127 0"/>
<feOffset dy="4"/>
<feGaussianBlur stdDeviation="2"/>
<feColorMatrix type="matrix" values="0 0 0 0 0 0 0 0 0 0 0 0 0 0 0 0 0 0 0.25 0"/>
<feBlend mode="normal" in2="BackgroundImageFix" result="effect1_dropShadow"/>
<feBlend mode="normal" in="SourceGraphic" in2="effect1_dropShadow" result="shape"/>
</filter>
<filter id="filter4_d" x="0" y="28" width="108.615" height="20.9231" filterUnits="userSpaceOnUse" color-interpolation-filters="sRGB">
<feFlood flood-opacity="0" result="BackgroundImageFix"/>
<feColorMatrix in="SourceAlpha" type="matrix" values="0 0 0 0 0 0 0 0 0 0 0 0 0 0 0 0 0 0 127 0"/>
<feOffset dy="4"/>
<feGaussianBlur stdDeviation="2"/>
<feColorMatrix type="matrix" values="0 0 0 0 0 0 0 0 0 0 0 0 0 0 0 0 0 0 0.25 0"/>
<feBlend mode="normal" in2="BackgroundImageFix" result="effect1_dropShadow"/>
<feBlend mode="normal" in="SourceGraphic" in2="effect1_dropShadow" result="shape"/>
</filter>
<linearGradient id="paint0_linear" x1="54.3077" y1="28" x2="54.3077" y2="40.9231" gradientUnits="userSpaceOnUse">
<stop stop-color="white"/>
<stop offset="1" stop-color="white" stop-opacity="0"/>
</linearGradient>
</defs>
</svg>
